<?xml version="1.0" encoding="utf-8"?>
<!-- Generator: Adobe Illustrator 18.1.1, SVG Export Plug-In . SVG Version: 6.00 Build 0)  -->
<svg version="1.1" id="Layer_1" xmlns="http://www.w3.org/2000/svg" xmlns:xlink="http://www.w3.org/1999/xlink" x="0px" y="0px"
	 viewBox="0 0 177 169.9" enable-background="new 0 0 177 169.9" xml:space="preserve">
<g>
	<g>
		<path fill="none" stroke="#00A79D" stroke-miterlimit="10" d="M67.4,54.8"/>
		<path fill="none" stroke="#000000" stroke-miterlimit="10" d="M49.4,80.7"/>
		
			<rect x="85.7" y="76" transform="matrix(0.9775 -0.211 0.211 0.9775 -16.5199 24.3913)" fill="none" stroke="#00A79D" stroke-miterlimit="10" width="40.7" height="27.2"/>
		<g>
			<path fill="none" stroke="#000000" stroke-miterlimit="10" d="M32.4,119.4c40.2-8.7,65.8-48.3,57.1-88.5"/>
			<path fill="none" stroke="#000000" stroke-miterlimit="10" d="M49.4,80.7c7.8-7.3,14-16.1,18.1-25.9"/>
			<line fill="none" stroke="#000000" stroke-miterlimit="10" x1="67.4" y1="54.8" x2="91.1" y2="49.7"/>
			<circle fill="none" stroke="#000000" stroke-miterlimit="10" cx="92.7" cy="75.3" r="44.1"/>
		</g>
	</g>
	<g>
		<path d="M33.2,121.5h1.3v3.6h0.1c0.1-0.5,0.4-1.1,0.7-1.6s0.8-0.9,1.2-1.3c0.5-0.4,1-0.6,1.6-0.9s1.2-0.3,1.9-0.3
			c0.8,0,1.6,0.1,2.2,0.3c0.6,0.2,1.1,0.5,1.6,0.9c0.4,0.4,0.8,0.8,1,1.2c0.2,0.4,0.4,0.9,0.5,1.3h0.1c0.5-1.2,1.2-2.2,2.1-2.8
			c0.9-0.6,2-0.9,3.5-0.9c0.8,0,1.5,0.1,2.2,0.4s1.3,0.6,1.7,1.1c0.5,0.5,0.9,1.1,1.1,1.9c0.3,0.8,0.4,1.6,0.4,2.7v12h-1.3v-12
			c0-1.1-0.2-2-0.5-2.6c-0.3-0.6-0.7-1.1-1.2-1.4c-0.5-0.3-0.9-0.5-1.4-0.6c-0.5-0.1-0.8-0.1-1.1-0.1c-0.8,0-1.5,0.1-2.2,0.4
			c-0.7,0.3-1.2,0.7-1.7,1.2s-0.9,1.2-1.1,2c-0.3,0.8-0.4,1.7-0.4,2.8V139h-1.3v-12c0-1.1-0.2-2-0.5-2.6c-0.3-0.6-0.7-1.1-1.2-1.4
			c-0.4-0.3-0.9-0.5-1.4-0.6s-0.8-0.1-1.1-0.1c-0.6,0-1.2,0.1-1.9,0.4c-0.7,0.3-1.3,0.6-1.8,1.2c-0.5,0.5-1,1.2-1.3,2
			c-0.3,0.8-0.5,1.8-0.5,2.9V139h-1.3V121.5z"/>
		<path fill="#00A79D" d="M60.6,118.2v-3.5h1.3v3.5H60.6z M60.6,139v-17.5h1.3V139H60.6z"/>
		<path d="M66.1,121.5h1.3v3.6h0.1c0.1-0.5,0.4-1.1,0.7-1.6s0.8-0.9,1.2-1.3c0.5-0.4,1-0.6,1.6-0.9s1.2-0.3,1.9-0.3
			c0.8,0,1.6,0.1,2.2,0.3c0.6,0.2,1.1,0.5,1.6,0.9c0.4,0.4,0.8,0.8,1,1.2c0.2,0.4,0.4,0.9,0.5,1.3h0.1c0.5-1.2,1.2-2.2,2.1-2.8
			c0.9-0.6,2-0.9,3.5-0.9c0.8,0,1.5,0.1,2.2,0.4s1.3,0.6,1.7,1.1c0.5,0.5,0.9,1.1,1.1,1.9c0.3,0.8,0.4,1.6,0.4,2.7v12H88v-12
			c0-1.1-0.2-2-0.5-2.6c-0.3-0.6-0.7-1.1-1.2-1.4c-0.5-0.3-0.9-0.5-1.4-0.6c-0.5-0.1-0.8-0.1-1.1-0.1c-0.8,0-1.5,0.1-2.2,0.4
			c-0.7,0.3-1.2,0.7-1.7,1.2s-0.9,1.2-1.1,2c-0.3,0.8-0.4,1.7-0.4,2.8V139H77v-12c0-1.1-0.2-2-0.5-2.6c-0.3-0.6-0.7-1.1-1.2-1.4
			c-0.4-0.3-0.9-0.5-1.4-0.6s-0.8-0.1-1.1-0.1c-0.6,0-1.2,0.1-1.9,0.4c-0.7,0.3-1.3,0.6-1.8,1.2c-0.5,0.5-1,1.2-1.3,2
			c-0.3,0.8-0.5,1.8-0.5,2.9V139h-1.3V121.5z"/>
		<path d="M92.4,130.2c0-1.2,0.2-2.4,0.5-3.5c0.4-1.1,0.9-2.1,1.6-2.9c0.7-0.8,1.5-1.5,2.5-2c1-0.5,2.1-0.7,3.4-0.7
			c1.3,0,2.4,0.2,3.4,0.7c1,0.5,1.8,1.2,2.5,2c0.7,0.8,1.2,1.8,1.6,2.9c0.4,1.1,0.5,2.3,0.5,3.5c0,1.3-0.2,2.4-0.5,3.5
			c-0.4,1.1-0.9,2.1-1.6,2.9c-0.7,0.8-1.5,1.5-2.5,2c-1,0.5-2.1,0.7-3.4,0.7c-1.3,0-2.4-0.2-3.4-0.7c-1-0.5-1.8-1.1-2.5-2
			c-0.7-0.8-1.2-1.8-1.6-2.9C92.5,132.7,92.4,131.5,92.4,130.2z M93.7,130.2c0,1,0.1,2.1,0.4,3c0.3,1,0.7,1.8,1.3,2.6
			c0.6,0.8,1.3,1.3,2.1,1.8c0.8,0.4,1.8,0.7,2.9,0.7c1.1,0,2.1-0.2,2.9-0.7c0.8-0.4,1.5-1,2.1-1.8s1-1.6,1.3-2.6c0.3-1,0.4-2,0.4-3
			c0-1-0.1-2.1-0.4-3c-0.3-1-0.7-1.8-1.3-2.6c-0.6-0.8-1.3-1.3-2.1-1.8c-0.8-0.4-1.8-0.7-2.9-0.7c-1.1,0-2.1,0.2-2.9,0.7
			c-0.8,0.4-1.5,1-2.1,1.8c-0.6,0.8-1,1.6-1.3,2.6C93.8,128.2,93.7,129.2,93.7,130.2z"/>
		<path d="M117.9,122.6h-3.8v12.2c0,0.7,0.1,1.3,0.2,1.7c0.2,0.4,0.4,0.7,0.7,0.9c0.3,0.2,0.7,0.3,1.2,0.4s1,0.1,1.6,0v1.1
			c-0.7,0-1.3,0-1.9,0c-0.6-0.1-1.2-0.2-1.7-0.5s-0.9-0.7-1.1-1.3s-0.4-1.4-0.4-2.4v-12.2h-3.2v-1.1h3.2V116h1.3v5.5h3.8V122.6z"/>
		<path d="M119,130.2c0-1.2,0.2-2.4,0.5-3.5c0.4-1.1,0.9-2.1,1.6-2.9c0.7-0.8,1.5-1.5,2.5-2c1-0.5,2.1-0.7,3.4-0.7
			c1.3,0,2.4,0.2,3.4,0.7c1,0.5,1.8,1.2,2.5,2c0.7,0.8,1.2,1.8,1.6,2.9c0.4,1.1,0.5,2.3,0.5,3.5c0,1.3-0.2,2.4-0.5,3.5
			c-0.4,1.1-0.9,2.1-1.6,2.9c-0.7,0.8-1.5,1.5-2.5,2c-1,0.5-2.1,0.7-3.4,0.7c-1.3,0-2.4-0.2-3.4-0.7c-1-0.5-1.8-1.1-2.5-2
			c-0.7-0.8-1.2-1.8-1.6-2.9C119.2,132.7,119,131.5,119,130.2z M120.3,130.2c0,1,0.1,2.1,0.4,3c0.3,1,0.7,1.8,1.3,2.6
			c0.6,0.8,1.3,1.3,2.1,1.8c0.8,0.4,1.8,0.7,2.9,0.7c1.1,0,2.1-0.2,2.9-0.7c0.8-0.4,1.5-1,2.1-1.8s1-1.6,1.3-2.6c0.3-1,0.4-2,0.4-3
			c0-1-0.1-2.1-0.4-3c-0.3-1-0.7-1.8-1.3-2.6c-0.6-0.8-1.3-1.3-2.1-1.8c-0.8-0.4-1.8-0.7-2.9-0.7c-1.1,0-2.1,0.2-2.9,0.7
			c-0.8,0.4-1.5,1-2.1,1.8c-0.6,0.8-1,1.6-1.3,2.6C120.5,128.2,120.3,129.2,120.3,130.2z"/>
	</g>
</g>
</svg>
